<?plantuml 1.2026.1?><svg xmlns="http://www.w3.org/2000/svg" xmlns:xlink="http://www.w3.org/1999/xlink" contentStyleType="text/css" data-diagram-type="MINDMAP" height="1207px" preserveAspectRatio="none" style="width:1818px;height:1207px;background:#FFFFFF;" version="1.1" viewBox="0 0 1818 1207" width="1818px" zoomAndPan="magnify"><defs/><g><rect fill="#FFFFFF" height="57.25" rx="12.5" ry="12.5" style="stroke:#181818;stroke-width:1.5;" width="242.0908" x="787.4968" y="573.9766"/><text fill="#000000" font-family="sans-serif" font-size="18" font-weight="bold" lengthAdjust="spacing" textLength="222.0908" x="797.4968" y="600.6846">Supervisor + Workers</text><text fill="#000000" font-family="sans-serif" font-size="14" lengthAdjust="spacing" textLength="111.9995" x="797.4968" y="617.9248">&#22810;&#26234;&#33021;&#20307;&#21327;&#20316;&#27169;&#24335;</text><text fill="#000000" font-family="sans-serif" font-size="14" lengthAdjust="spacing" textLength="4.4502" x="909.4963" y="617.9248">&#160;</text><rect fill="#1E3A8A" height="36.2969" rx="12.5" ry="12.5" style="stroke:#181818;stroke-width:1.5;" width="186.4132" x="1079.5876" y="402.9688"/><path d="M1095.2543,416.4323 C1093.9709,416.4323 1092.9209,417.739 1092.9209,419.349 C1092.9209,420.959 1093.9709,422.2656 1095.2543,422.2656 C1096.5376,422.2656 1097.5876,420.959 1097.5876,419.349 C1097.5876,417.739 1096.5376,416.4323 1095.2543,416.4323 M1092.8159,422.2656 C1091.5793,422.324 1090.5876,423.339 1090.5876,424.599 L1090.5876,425.7656 L1099.9209,425.7656 L1099.9209,424.599 C1099.9209,423.339 1098.9409,422.324 1097.6926,422.2656 C1097.0626,422.9773 1096.1993,423.4323 1095.2543,423.4323 C1094.3093,423.4323 1093.4459,422.9773 1092.8159,422.2656" fill="#FFFFFF"/><text fill="#FFFFFF" font-family="sans-serif" font-size="14" lengthAdjust="spacing" textLength="146.1794" x="1105.3711" y="425.9639">Supervisor (&#36335;&#30001;&#35843;&#24230;)</text><rect fill="#FFFFFF" height="36.2969" rx="12.5" ry="12.5" style="stroke:#181818;stroke-width:1.5;" width="75.9998" x="1316.0008" y="257.7813"/><text fill="#000000" font-family="sans-serif" font-size="14" lengthAdjust="spacing" textLength="55.9998" x="1326.0008" y="280.7764">&#35282;&#33394;&#23450;&#20301;</text><rect fill="#FFFFFF" height="36.2969" rx="12.5" ry="12.5" style="stroke:#181818;stroke-width:1.5;" width="285.9988" x="1442.0005" y="257.7813"/><text fill="#000000" font-family="sans-serif" font-size="14" lengthAdjust="spacing" textLength="265.9988" x="1452.0005" y="280.7764">&#20840;&#23616;&#21327;&#35843;&#32773;&#12289;&#20219;&#21153;&#36335;&#30001;&#22120;&#12289;&#29983;&#21629;&#21608;&#26399;&#31649;&#29702;&#32773;</text><path d="M1392.0005,275.9297 L1402.0005,275.9297 C1417.0005,275.9297 1417.0005,275.9297 1432.0005,275.9297 L1442.0005,275.9297" fill="none" style="stroke:#666666;stroke-width:2;"/><path d="M1266.0008,421.1172 L1276.0008,421.1172 C1291.0008,421.1172 1291.0008,275.9297 1306.0008,275.9297 L1316.0008,275.9297" fill="none" style="stroke:#666666;stroke-width:2;"/><rect fill="#FFFFFF" height="36.2969" rx="12.5" ry="12.5" style="stroke:#181818;stroke-width:1.5;" width="75.9998" x="1316.0008" y="322.2266"/><text fill="#000000" font-family="sans-serif" font-size="14" lengthAdjust="spacing" textLength="55.9998" x="1326.0008" y="345.2217">&#26680;&#24515;&#32844;&#36131;</text><rect fill="#FFFFFF" height="52.5938" rx="12.5" ry="12.5" style="stroke:#181818;stroke-width:1.5;" width="243.999" x="1442.0005" y="314.0781"/><text fill="#000000" font-family="sans-serif" font-size="14" lengthAdjust="spacing" textLength="223.999" x="1452.0005" y="337.0732">&#21160;&#24577;&#20219;&#21153;&#20998;&#21457;&#12289;&#36127;&#36733;&#22343;&#34913;&#12289;&#25925;&#38556;&#36716;&#31227;</text><text fill="#000000" font-family="sans-serif" font-size="14" lengthAdjust="spacing" textLength="153.9993" x="1452.0005" y="353.3701">&#29366;&#24577;&#21516;&#27493;&#12289;&#36164;&#28304;&#37197;&#39069;&#25511;&#21046;</text><path d="M1392.0005,340.375 L1402.0005,340.375 C1417.0005,340.375 1417.0005,340.375 1432.0005,340.375 L1442.0005,340.375" fill="none" style="stroke:#666666;stroke-width:2;"/><path d="M1266.0008,421.1172 L1276.0008,421.1172 C1291.0008,421.1172 1291.0008,340.375 1306.0008,340.375 L1316.0008,340.375" fill="none" style="stroke:#666666;stroke-width:2;"/><rect fill="#FFFFFF" height="36.2969" rx="12.5" ry="12.5" style="stroke:#181818;stroke-width:1.5;" width="75.9998" x="1316.0008" y="394.8203"/><text fill="#000000" font-family="sans-serif" font-size="14" lengthAdjust="spacing" textLength="55.9998" x="1326.0008" y="417.8154">&#20851;&#38190;&#31639;&#27861;</text><rect fill="#FFFFFF" height="52.5938" rx="12.5" ry="12.5" style="stroke:#181818;stroke-width:1.5;" width="201.9992" x="1442.0005" y="386.6719"/><text fill="#000000" font-family="sans-serif" font-size="14" lengthAdjust="spacing" textLength="181.9992" x="1452.0005" y="409.667">&#19968;&#33268;&#24615;&#21704;&#24076;&#36335;&#30001;&#12289;&#20248;&#20808;&#32423;&#38431;&#21015;</text><text fill="#000000" font-family="sans-serif" font-size="14" lengthAdjust="spacing" textLength="167.9993" x="1452.0005" y="425.9639">&#24515;&#36339;&#26816;&#27979;&#12289;&#29076;&#26029;&#19982;&#37325;&#35797;&#31574;&#30053;</text><path d="M1392.0005,412.9688 L1402.0005,412.9688 C1417.0005,412.9688 1417.0005,412.9688 1432.0005,412.9688 L1442.0005,412.9688" fill="none" style="stroke:#666666;stroke-width:2;"/><path d="M1266.0008,421.1172 L1276.0008,421.1172 C1291.0008,421.1172 1291.0008,412.9688 1306.0008,412.9688 L1316.0008,412.9688" fill="none" style="stroke:#666666;stroke-width:2;"/><rect fill="#FFFFFF" height="36.2969" rx="12.5" ry="12.5" style="stroke:#181818;stroke-width:1.5;" width="75.9998" x="1316.0008" y="467.4141"/><text fill="#000000" font-family="sans-serif" font-size="14" lengthAdjust="spacing" textLength="55.9998" x="1326.0008" y="490.4092">&#20132;&#20114;&#21327;&#35758;</text><rect fill="#FFFFFF" height="52.5938" rx="12.5" ry="12.5" style="stroke:#181818;stroke-width:1.5;" width="286.936" x="1442.0005" y="459.2656"/><text fill="#000000" font-family="sans-serif" font-size="14" lengthAdjust="spacing" textLength="266.936" x="1452.0005" y="482.2607">gRPC/HTTP2 &#21452;&#21521;&#27969;&#12289;Protobuf &#28040;&#24687;&#26684;&#24335;</text><text fill="#000000" font-family="sans-serif" font-size="14" lengthAdjust="spacing" textLength="211.5923" x="1452.0005" y="498.5576">TLS 1.3 &#21152;&#23494;&#12289;OAuth2 &#36523;&#20221;&#39564;&#35777;</text><path d="M1392.0005,485.5625 L1402.0005,485.5625 C1417.0005,485.5625 1417.0005,485.5625 1432.0005,485.5625 L1442.0005,485.5625" fill="none" style="stroke:#666666;stroke-width:2;"/><path d="M1266.0008,421.1172 L1276.0008,421.1172 C1291.0008,421.1172 1291.0008,485.5625 1306.0008,485.5625 L1316.0008,485.5625" fill="none" style="stroke:#666666;stroke-width:2;"/><rect fill="#FFFFFF" height="36.2969" rx="12.5" ry="12.5" style="stroke:#181818;stroke-width:1.5;" width="75.9998" x="1316.0008" y="540.0078"/><text fill="#000000" font-family="sans-serif" font-size="14" lengthAdjust="spacing" textLength="55.9998" x="1326.0008" y="563.0029">&#21487;&#35266;&#27979;&#24615;</text><rect fill="#FFFFFF" height="52.5938" rx="12.5" ry="12.5" style="stroke:#181818;stroke-width:1.5;" width="319.899" x="1442.0005" y="531.8594"/><text fill="#000000" font-family="sans-serif" font-size="14" lengthAdjust="spacing" textLength="299.899" x="1452.0005" y="554.8545">Prometheus &#25351;&#26631;&#12289;OpenTelemetry &#38142;&#36335;&#36861;&#36394;</text><text fill="#000000" font-family="sans-serif" font-size="14" lengthAdjust="spacing" textLength="153.9993" x="1452.0005" y="571.1514">&#32467;&#26500;&#21270;&#26085;&#24535;&#12289;&#23454;&#26102;&#20202;&#34920;&#30424;</text><path d="M1392.0005,558.1563 L1402.0005,558.1563 C1417.0005,558.1563 1417.0005,558.1563 1432.0005,558.1563 L1442.0005,558.1563" fill="none" style="stroke:#666666;stroke-width:2;"/><path d="M1266.0008,421.1172 L1276.0008,421.1172 C1291.0008,421.1172 1291.0008,558.1563 1306.0008,558.1563 L1316.0008,558.1563" fill="none" style="stroke:#666666;stroke-width:2;"/><path d="M1029.5876,602.6016 L1039.5876,602.6016 C1054.5876,602.6016 1054.5876,421.1172 1069.5876,421.1172 L1079.5876,421.1172" fill="none" style="stroke:#666666;stroke-width:2;"/><rect fill="#0D9488" height="36.2969" rx="12.5" ry="12.5" style="stroke:#181818;stroke-width:1.5;" width="169.5421" x="1079.5876" y="757.7891"/><path d="M1094.6709,771.2526 L1094.0876,772.6409 C1093.9709,772.6759 1093.8659,772.7343 1093.7609,772.7926 L1092.3726,772.2093 L1091.5326,773.0493 L1092.1159,774.4376 C1092.0576,774.5543 1092.0109,774.6476 1091.9643,774.7643 L1090.5759,775.3476 L1090.5759,776.5143 L1091.9643,777.0976 C1092.0109,777.2143 1092.0576,777.3076 1092.1159,777.4243 L1091.5326,778.8126 L1092.3726,779.6526 L1093.7609,779.0693 C1093.8659,779.1159 1093.9709,779.1743 1094.0876,779.2209 L1094.6709,780.6093 L1095.8376,780.6093 L1096.4209,779.2209 C1096.5259,779.1743 1096.6426,779.1276 1096.7476,779.0693 L1098.1359,779.6526 L1098.9759,778.8126 L1098.3926,777.4243 C1098.4393,777.3193 1098.4976,777.2026 1098.5443,777.0976 L1099.9326,776.5143 L1099.9326,775.3476 L1098.5443,774.7643 C1098.5093,774.6593 1098.4509,774.5426 1098.3926,774.4376 L1098.9759,773.0493 L1098.1359,772.2093 L1096.7476,772.7926 C1096.6426,772.7459 1096.5259,772.6876 1096.4209,772.6409 L1095.8376,771.2526 L1094.6709,771.2526 M1095.2543,774.1693 C1096.2226,774.1693 1097.0043,774.9509 1097.0043,775.9193 C1097.0043,776.8876 1096.2226,777.6693 1095.2543,777.6693 C1094.2859,777.6693 1093.5043,776.8876 1093.5043,775.9193 C1093.5043,774.9509 1094.2859,774.1693 1095.2543,774.1693" fill="#FFFFFF"/><text fill="#FFFFFF" font-family="sans-serif" font-size="14" lengthAdjust="spacing" textLength="129.3083" x="1105.3711" y="780.7842">Workers (&#39046;&#22495;&#19987;&#23478;)</text><rect fill="#FFFFFF" height="36.2969" rx="12.5" ry="12.5" style="stroke:#181818;stroke-width:1.5;" width="75.9998" x="1299.1297" y="612.6016"/><text fill="#000000" font-family="sans-serif" font-size="14" lengthAdjust="spacing" textLength="55.9998" x="1309.1297" y="635.5967">&#35282;&#33394;&#23450;&#20301;</text><rect fill="#FFFFFF" height="52.5938" rx="12.5" ry="12.5" style="stroke:#181818;stroke-width:1.5;" width="215.9991" x="1425.1294" y="604.4531"/><text fill="#000000" font-family="sans-serif" font-size="14" lengthAdjust="spacing" textLength="195.9991" x="1435.1294" y="627.4482">&#39046;&#22495;&#19987;&#23478;&#12289;&#26080;&#29366;&#24577;&#20219;&#21153;&#25191;&#34892;&#21333;&#20803;</text><text fill="#000000" font-family="sans-serif" font-size="14" lengthAdjust="spacing" textLength="174.7943" x="1435.1294" y="643.7451">&#21487;&#27700;&#24179;&#25193;&#23637;&#30340; Pod &#32423;&#24494;&#26381;&#21153;</text><path d="M1375.1294,630.75 L1385.1294,630.75 C1400.1294,630.75 1400.1294,630.75 1415.1294,630.75 L1425.1294,630.75" fill="none" style="stroke:#666666;stroke-width:2;"/><path d="M1249.1297,775.9375 L1259.1297,775.9375 C1274.1297,775.9375 1274.1297,630.75 1289.1297,630.75 L1299.1297,630.75" fill="none" style="stroke:#666666;stroke-width:2;"/><rect fill="#FFFFFF" height="36.2969" rx="12.5" ry="12.5" style="stroke:#181818;stroke-width:1.5;" width="75.9998" x="1299.1297" y="685.1953"/><text fill="#000000" font-family="sans-serif" font-size="14" lengthAdjust="spacing" textLength="55.9998" x="1309.1297" y="708.1904">&#19987;&#19994;&#39046;&#22495;</text><rect fill="#FFFFFF" height="52.5938" rx="12.5" ry="12.5" style="stroke:#181818;stroke-width:1.5;" width="257.999" x="1425.1294" y="677.0469"/><text fill="#000000" font-family="sans-serif" font-size="14" lengthAdjust="spacing" textLength="237.999" x="1435.1294" y="700.042">&#33258;&#28982;&#35821;&#35328;&#22788;&#29702;&#12289;&#35745;&#31639;&#26426;&#35270;&#35273;&#12289;&#25512;&#33616;&#31639;&#27861;</text><text fill="#000000" font-family="sans-serif" font-size="14" lengthAdjust="spacing" textLength="125.9995" x="1435.1294" y="716.3389">&#30693;&#35782;&#22270;&#35889;&#12289;&#24378;&#21270;&#23398;&#20064;</text><path d="M1375.1294,703.3438 L1385.1294,703.3438 C1400.1294,703.3438 1400.1294,703.3438 1415.1294,703.3438 L1425.1294,703.3438" fill="none" style="stroke:#666666;stroke-width:2;"/><path d="M1249.1297,775.9375 L1259.1297,775.9375 C1274.1297,775.9375 1274.1297,703.3438 1289.1297,703.3438 L1299.1297,703.3438" fill="none" style="stroke:#666666;stroke-width:2;"/><rect fill="#FFFFFF" height="36.2969" rx="12.5" ry="12.5" style="stroke:#181818;stroke-width:1.5;" width="61.9998" x="1299.1297" y="757.7891"/><text fill="#000000" font-family="sans-serif" font-size="14" lengthAdjust="spacing" textLength="41.9998" x="1309.1297" y="780.7842">&#36816;&#34892;&#26102;</text><rect fill="#FFFFFF" height="52.5938" rx="12.5" ry="12.5" style="stroke:#181818;stroke-width:1.5;" width="263.5435" x="1411.1295" y="749.6406"/><text fill="#000000" font-family="sans-serif" font-size="14" lengthAdjust="spacing" textLength="243.5435" x="1421.1295" y="772.6357">&#23481;&#22120;&#21270;(Docker+K8s)&#12289;GPU &#24377;&#24615;&#35843;&#24230;</text><text fill="#000000" font-family="sans-serif" font-size="14" lengthAdjust="spacing" textLength="242.4634" x="1421.1295" y="788.9326">Serverless &#33258;&#21160;&#20280;&#32553;&#12289;&#20919;&#21551;&#21160; &lt;= 3 s</text><path d="M1361.1295,775.9375 L1371.1295,775.9375 C1386.1295,775.9375 1386.1295,775.9375 1401.1295,775.9375 L1411.1295,775.9375" fill="none" style="stroke:#666666;stroke-width:2;"/><path d="M1249.1297,775.9375 L1259.1297,775.9375 C1274.1297,775.9375 1274.1297,775.9375 1289.1297,775.9375 L1299.1297,775.9375" fill="none" style="stroke:#666666;stroke-width:2;"/><rect fill="#FFFFFF" height="36.2969" rx="12.5" ry="12.5" style="stroke:#181818;stroke-width:1.5;" width="75.9998" x="1299.1297" y="830.3828"/><text fill="#000000" font-family="sans-serif" font-size="14" lengthAdjust="spacing" textLength="55.9998" x="1309.1297" y="853.3779">&#24615;&#33021;&#25351;&#26631;</text><rect fill="#FFFFFF" height="52.5938" rx="12.5" ry="12.5" style="stroke:#181818;stroke-width:1.5;" width="362.0151" x="1425.1294" y="822.2344"/><text fill="#000000" font-family="sans-serif" font-size="14" lengthAdjust="spacing" textLength="342.0151" x="1435.1294" y="845.2295">&#21333;&#20219;&#21153; P99 &#24310;&#36831; &lt;= 200 ms&#12289;CPU &#21033;&#29992;&#29575; &gt;= 60%</text><text fill="#000000" font-family="sans-serif" font-size="14" lengthAdjust="spacing" textLength="253.9409" x="1435.1294" y="861.5264">GPU &#26174;&#23384;&#21344;&#29992; &lt;= 80%&#12289;&#24130;&#31561;&#24615; 100%</text><path d="M1375.1294,848.5313 L1385.1294,848.5313 C1400.1294,848.5313 1400.1294,848.5313 1415.1294,848.5313 L1425.1294,848.5313" fill="none" style="stroke:#666666;stroke-width:2;"/><path d="M1249.1297,775.9375 L1259.1297,775.9375 C1274.1297,775.9375 1274.1297,848.5313 1289.1297,848.5313 L1299.1297,848.5313" fill="none" style="stroke:#666666;stroke-width:2;"/><rect fill="#FFFFFF" height="36.2969" rx="12.5" ry="12.5" style="stroke:#181818;stroke-width:1.5;" width="75.9998" x="1299.1297" y="902.9766"/><text fill="#000000" font-family="sans-serif" font-size="14" lengthAdjust="spacing" textLength="55.9998" x="1309.1297" y="925.9717">&#36136;&#37327;&#38376;&#27099;</text><rect fill="#FFFFFF" height="52.5938" rx="12.5" ry="12.5" style="stroke:#181818;stroke-width:1.5;" width="381.2444" x="1425.1294" y="894.8281"/><text fill="#000000" font-family="sans-serif" font-size="14" lengthAdjust="spacing" textLength="361.2444" x="1435.1294" y="917.8232">&#21333;&#20803;&#27979;&#35797;&#35206;&#30422;&#29575; &gt;= 90%&#12289;Mutation &#27979;&#35797;&#24471;&#20998; &gt;= 80%</text><text fill="#000000" font-family="sans-serif" font-size="14" lengthAdjust="spacing" textLength="286.2813" x="1435.1294" y="934.1201">&#38745;&#24577;&#25195;&#25551; 0 &#39640;&#21361;&#28431;&#27934;&#12289;&#28151;&#27788;&#27979;&#35797;&#36890;&#36807;&#29575; 100%</text><path d="M1375.1294,921.125 L1385.1294,921.125 C1400.1294,921.125 1400.1294,921.125 1415.1294,921.125 L1425.1294,921.125" fill="none" style="stroke:#666666;stroke-width:2;"/><path d="M1249.1297,775.9375 L1259.1297,775.9375 C1274.1297,775.9375 1274.1297,921.125 1289.1297,921.125 L1299.1297,921.125" fill="none" style="stroke:#666666;stroke-width:2;"/><path d="M1029.5876,602.6016 L1039.5876,602.6016 C1054.5876,602.6016 1054.5876,775.9375 1069.5876,775.9375 L1079.5876,775.9375" fill="none" style="stroke:#666666;stroke-width:2;"/><rect fill="#F59E0B" height="36.2969" rx="12.5" ry="12.5" style="stroke:#181818;stroke-width:1.5;" width="96.2335" x="641.2633" y="165.1875"/><path d="M658.0966,179.8177 L658.0966,182.151 L652.2633,182.151 L652.2633,183.3177 L658.0966,183.3177 L658.0966,185.651 L661.5966,182.6994 L658.0966,179.8177" fill="#FFFFFF"/><text fill="#FFFFFF" font-family="sans-serif" font-size="14" lengthAdjust="spacing" textLength="55.9998" x="667.0468" y="188.1826">&#21327;&#20316;&#27969;&#31243;</text><rect fill="#FFFFFF" height="36.2969" rx="12.5" ry="12.5" style="stroke:#181818;stroke-width:1.5;" width="75.9998" x="515.2635" y="20"/><text fill="#000000" font-family="sans-serif" font-size="14" lengthAdjust="spacing" textLength="55.9998" x="525.2635" y="42.9951">&#20219;&#21153;&#25552;&#20132;</text><rect fill="#FFFFFF" height="36.2969" rx="12.5" ry="12.5" style="stroke:#181818;stroke-width:1.5;" width="414.3303" x="50.9333" y="20"/><text fill="#000000" font-family="sans-serif" font-size="14" lengthAdjust="spacing" textLength="394.3303" x="60.9333" y="42.9951">&#23458;&#25143;&#31471;&#36890;&#36807; GraphQL API &#19978;&#20256;&#20219;&#21153;&#23450;&#20041; (JSON Schema &#26657;&#39564;)</text><path d="M515.2635,38.1484 L505.2635,38.1484 C490.2635,38.1484 490.2635,38.1484 475.2635,38.1484 L465.2635,38.1484" fill="none" style="stroke:#666666;stroke-width:2;"/><path d="M641.2633,183.3359 L631.2633,183.3359 C616.2633,183.3359 616.2633,38.1484 601.2633,38.1484 L591.2633,38.1484" fill="none" style="stroke:#666666;stroke-width:2;"/><rect fill="#FFFFFF" height="36.2969" rx="12.5" ry="12.5" style="stroke:#181818;stroke-width:1.5;" width="75.9998" x="515.2635" y="84.4453"/><text fill="#000000" font-family="sans-serif" font-size="14" lengthAdjust="spacing" textLength="55.9998" x="525.2635" y="107.4404">&#36335;&#30001;&#20915;&#31574;</text><rect fill="#FFFFFF" height="52.5938" rx="12.5" ry="12.5" style="stroke:#181818;stroke-width:1.5;" width="308.346" x="156.9175" y="76.2969"/><text fill="#000000" font-family="sans-serif" font-size="14" lengthAdjust="spacing" textLength="288.346" x="166.9175" y="99.292">Supervisor &#22522;&#20110;&#20219;&#21153;&#31867;&#22411;&#12289;Worker &#23454;&#26102;&#36127;&#36733;</text><text fill="#000000" font-family="sans-serif" font-size="14" lengthAdjust="spacing" textLength="167.9993" x="166.9175" y="115.5889">&#20146;&#21644;&#24615;&#26631;&#31614;&#36827;&#34892;&#27627;&#31186;&#32423;&#35843;&#24230;</text><path d="M515.2635,102.5938 L505.2635,102.5938 C490.2635,102.5938 490.2635,102.5938 475.2635,102.5938 L465.2635,102.5938" fill="none" style="stroke:#666666;stroke-width:2;"/><path d="M641.2633,183.3359 L631.2633,183.3359 C616.2633,183.3359 616.2633,102.5938 601.2633,102.5938 L591.2633,102.5938" fill="none" style="stroke:#666666;stroke-width:2;"/><rect fill="#FFFFFF" height="36.2969" rx="12.5" ry="12.5" style="stroke:#181818;stroke-width:1.5;" width="89.9997" x="501.2636" y="157.0391"/><text fill="#000000" font-family="sans-serif" font-size="14" lengthAdjust="spacing" textLength="69.9997" x="511.2636" y="180.0342">&#25191;&#34892;&#19982;&#21453;&#39304;</text><rect fill="#FFFFFF" height="52.5938" rx="12.5" ry="12.5" style="stroke:#181818;stroke-width:1.5;" width="273.4895" x="177.7741" y="148.8906"/><text fill="#000000" font-family="sans-serif" font-size="14" lengthAdjust="spacing" textLength="253.4895" x="187.7741" y="171.8857">Worker &#21551;&#21160;&#20219;&#21153;&#23481;&#22120; -&gt; &#25289;&#21462;&#27169;&#22411;/&#25968;&#25454;</text><text fill="#000000" font-family="sans-serif" font-size="14" lengthAdjust="spacing" textLength="240.5969" x="187.7741" y="188.1826">-&gt; &#36816;&#34892; -&gt; &#27969;&#24335;&#36820;&#22238;&#32467;&#26524; -&gt; &#19978;&#25253;&#25351;&#26631;</text><path d="M501.2636,175.1875 L491.2636,175.1875 C476.2636,175.1875 476.2636,175.1875 461.2636,175.1875 L451.2636,175.1875" fill="none" style="stroke:#666666;stroke-width:2;"/><path d="M641.2633,183.3359 L631.2633,183.3359 C616.2633,183.3359 616.2633,175.1875 601.2633,175.1875 L591.2633,175.1875" fill="none" style="stroke:#666666;stroke-width:2;"/><rect fill="#FFFFFF" height="36.2969" rx="12.5" ry="12.5" style="stroke:#181818;stroke-width:1.5;" width="75.9998" x="515.2635" y="229.6328"/><text fill="#000000" font-family="sans-serif" font-size="14" lengthAdjust="spacing" textLength="55.9998" x="525.2635" y="252.6279">&#32467;&#26524;&#32858;&#21512;</text><rect fill="#FFFFFF" height="52.5938" rx="12.5" ry="12.5" style="stroke:#181818;stroke-width:1.5;" width="281.2551" x="184.0085" y="221.4844"/><text fill="#000000" font-family="sans-serif" font-size="14" lengthAdjust="spacing" textLength="261.2551" x="194.0085" y="244.4795">Supervisor &#23545;&#23376;&#20219;&#21153;&#32467;&#26524;&#36827;&#34892;&#25490;&#24207;&#12289;&#21435;&#37325;</text><text fill="#000000" font-family="sans-serif" font-size="14" lengthAdjust="spacing" textLength="195.9991" x="194.0085" y="260.7764">&#32622;&#20449;&#24230;&#34701;&#21512;&#65292;&#26368;&#32456;&#29983;&#25104;&#32479;&#19968;&#21709;&#24212;</text><path d="M515.2635,247.7813 L505.2635,247.7813 C490.2635,247.7813 490.2635,247.7813 475.2635,247.7813 L465.2635,247.7813" fill="none" style="stroke:#666666;stroke-width:2;"/><path d="M641.2633,183.3359 L631.2633,183.3359 C616.2633,183.3359 616.2633,247.7813 601.2633,247.7813 L591.2633,247.7813" fill="none" style="stroke:#666666;stroke-width:2;"/><rect fill="#FFFFFF" height="36.2969" rx="12.5" ry="12.5" style="stroke:#181818;stroke-width:1.5;" width="75.9998" x="515.2635" y="302.2266"/><text fill="#000000" font-family="sans-serif" font-size="14" lengthAdjust="spacing" textLength="55.9998" x="525.2635" y="325.2217">&#24322;&#24120;&#22788;&#29702;</text><rect fill="#FFFFFF" height="52.5938" rx="12.5" ry="12.5" style="stroke:#181818;stroke-width:1.5;" width="275.8066" x="189.457" y="294.0781"/><text fill="#000000" font-family="sans-serif" font-size="14" lengthAdjust="spacing" textLength="203.3821" x="199.457" y="317.0732">&#36229;&#26102;(&#40664;&#35748; 30 s &#21487;&#37197;&#32622;)&#35302;&#21457;&#29076;&#26029;</text><text fill="#000000" font-family="sans-serif" font-size="14" lengthAdjust="spacing" textLength="255.8066" x="199.457" y="333.3701">&#33258;&#21160;&#37325;&#35797; 2 &#27425;&#21518;&#36716;&#20837;&#22833;&#36133;&#38431;&#21015;&#24182;&#36890;&#30693;&#36816;&#32500;</text><path d="M515.2635,320.375 L505.2635,320.375 C490.2635,320.375 490.2635,320.375 475.2635,320.375 L465.2635,320.375" fill="none" style="stroke:#666666;stroke-width:2;"/><path d="M641.2633,183.3359 L631.2633,183.3359 C616.2633,183.3359 616.2633,320.375 601.2633,320.375 L591.2633,320.375" fill="none" style="stroke:#666666;stroke-width:2;"/><path d="M787.4968,602.6016 L777.4968,602.6016 C762.4968,602.6016 762.4968,183.3359 747.4968,183.3359 L737.4968,183.3359" fill="none" style="stroke:#666666;stroke-width:2;"/><rect fill="#6B7280" height="36.2969" rx="12.5" ry="12.5" style="stroke:#181818;stroke-width:1.5;" width="124.2334" x="613.2634" y="475.5625"/><path d="M624.4851,489.026 C624.3568,489.026 624.2634,489.1194 624.2634,489.2477 L624.2634,493.1094 C624.2634,493.436 624.5201,493.6927 624.8468,493.6927 L631.8468,493.6927 C632.1734,493.6927 632.4301,493.436 632.4301,493.1094 L632.4301,489.2477 C632.4301,489.1194 632.3368,489.026 632.2084,489.026 L624.4734,489.026 M624.2634,494.7544 L624.2634,498.1494 C624.2634,498.2777 624.3568,498.371 624.4851,498.371 L632.2201,498.371 C632.3484,498.371 632.4418,498.2777 632.4418,498.1494 L632.4418,494.7544 C632.2551,494.8244 632.0684,494.8594 631.8584,494.8594 L624.8584,494.8594 C624.6484,494.8594 624.4618,494.8127 624.2751,494.7544 M630.6801,496.026 C631.0068,496.026 631.2634,496.2827 631.2634,496.6094 C631.2634,496.936 631.0068,497.1927 630.6801,497.1927 C630.3534,497.1927 630.0968,496.936 630.0968,496.6094 C630.0968,496.2827 630.3534,496.026 630.6801,496.026" fill="#FFFFFF"/><text fill="#FFFFFF" font-family="sans-serif" font-size="14" lengthAdjust="spacing" textLength="83.9996" x="639.047" y="498.5576">&#25968;&#25454;&#27969;&#19982;&#23384;&#20648;</text><rect fill="#FFFFFF" height="36.2969" rx="12.5" ry="12.5" style="stroke:#181818;stroke-width:1.5;" width="75.9998" x="487.2637" y="366.6719"/><text fill="#000000" font-family="sans-serif" font-size="14" lengthAdjust="spacing" textLength="55.9998" x="497.2637" y="389.667">&#28040;&#24687;&#38431;&#21015;</text><rect fill="#FFFFFF" height="36.2969" rx="12.5" ry="12.5" style="stroke:#181818;stroke-width:1.5;" width="427.2637" x="10" y="366.6719"/><text fill="#000000" font-family="sans-serif" font-size="14" lengthAdjust="spacing" textLength="407.2637" x="20" y="389.667">Kafka 3.x &#25552;&#20379; &gt;= 100k QPS&#12289;&#38646;&#25968;&#25454;&#20002;&#22833;&#12289;&#36328;&#26426;&#25151;&#22797;&#21046;&#22240;&#23376; 3</text><path d="M487.2637,384.8203 L477.2637,384.8203 C462.2637,384.8203 462.2637,384.8203 447.2637,384.8203 L437.2637,384.8203" fill="none" style="stroke:#666666;stroke-width:2;"/><path d="M613.2634,493.7109 L603.2634,493.7109 C588.2634,493.7109 588.2634,384.8203 573.2634,384.8203 L563.2634,384.8203" fill="none" style="stroke:#666666;stroke-width:2;"/><rect fill="#FFFFFF" height="36.2969" rx="12.5" ry="12.5" style="stroke:#181818;stroke-width:1.5;" width="89.9997" x="473.2637" y="431.1172"/><text fill="#000000" font-family="sans-serif" font-size="14" lengthAdjust="spacing" textLength="69.9997" x="483.2637" y="454.1123">&#20998;&#24067;&#24335;&#32531;&#23384;</text><rect fill="#FFFFFF" height="52.5938" rx="12.5" ry="12.5" style="stroke:#181818;stroke-width:1.5;" width="327.3363" x="95.9274" y="422.9688"/><text fill="#000000" font-family="sans-serif" font-size="14" lengthAdjust="spacing" textLength="235.0942" x="105.9274" y="445.9639">Redis Cluster 7.x &#20316;&#20026;&#28909;&#28857;&#27169;&#22411;&#32531;&#23384;</text><text fill="#000000" font-family="sans-serif" font-size="14" lengthAdjust="spacing" textLength="307.3363" x="105.9274" y="462.2607">&#21629;&#20013;&#29575; &gt;= 95%&#65292;TTL &#31574;&#30053;&#25903;&#25345; LRU+LFU &#32452;&#21512;</text><path d="M473.2637,449.2656 L463.2637,449.2656 C448.2637,449.2656 448.2637,449.2656 433.2637,449.2656 L423.2637,449.2656" fill="none" style="stroke:#666666;stroke-width:2;"/><path d="M613.2634,493.7109 L603.2634,493.7109 C588.2634,493.7109 588.2634,449.2656 573.2634,449.2656 L563.2634,449.2656" fill="none" style="stroke:#666666;stroke-width:2;"/><rect fill="#FFFFFF" height="36.2969" rx="12.5" ry="12.5" style="stroke:#181818;stroke-width:1.5;" width="75.9998" x="487.2637" y="503.7109"/><text fill="#000000" font-family="sans-serif" font-size="14" lengthAdjust="spacing" textLength="55.9998" x="497.2637" y="526.7061">&#23545;&#35937;&#23384;&#20648;</text><rect fill="#FFFFFF" height="52.5938" rx="12.5" ry="12.5" style="stroke:#181818;stroke-width:1.5;" width="275.431" x="161.8326" y="495.5625"/><text fill="#000000" font-family="sans-serif" font-size="14" lengthAdjust="spacing" textLength="220.6839" x="171.8326" y="518.5576">MinIO S3 &#20860;&#23481;&#23618;&#65292;&#27169;&#22411;&#25991;&#20214;&#29256;&#26412;&#21270;</text><text fill="#000000" font-family="sans-serif" font-size="14" lengthAdjust="spacing" textLength="255.431" x="171.8326" y="534.8545">&#19981;&#21487;&#21464;&#12289;&#25903;&#25345; Pre-signed URL &#31186;&#32423;&#20998;&#21457;</text><path d="M487.2637,521.8594 L477.2637,521.8594 C462.2637,521.8594 462.2637,521.8594 447.2637,521.8594 L437.2637,521.8594" fill="none" style="stroke:#666666;stroke-width:2;"/><path d="M613.2634,493.7109 L603.2634,493.7109 C588.2634,493.7109 588.2634,521.8594 573.2634,521.8594 L563.2634,521.8594" fill="none" style="stroke:#666666;stroke-width:2;"/><rect fill="#FFFFFF" height="36.2969" rx="12.5" ry="12.5" style="stroke:#181818;stroke-width:1.5;" width="75.9998" x="487.2637" y="576.3047"/><text fill="#000000" font-family="sans-serif" font-size="14" lengthAdjust="spacing" textLength="55.9998" x="497.2637" y="599.2998">&#23457;&#35745;&#26085;&#24535;</text><rect fill="#FFFFFF" height="52.5938" rx="12.5" ry="12.5" style="stroke:#181818;stroke-width:1.5;" width="255.402" x="181.8617" y="568.1563"/><text fill="#000000" font-family="sans-serif" font-size="14" lengthAdjust="spacing" textLength="235.402" x="191.8617" y="591.1514">&#36861;&#21152;&#20889;&#20837; LSM-Tree &#23384;&#20648; (RocksDB)</text><text fill="#000000" font-family="sans-serif" font-size="14" lengthAdjust="spacing" textLength="202.5687" x="191.8617" y="607.4482">&#20445;&#30041; 180 &#22825;&#65292;&#25903;&#25345; PB &#32423;&#20919;&#24402;&#26723;</text><path d="M487.2637,594.4531 L477.2637,594.4531 C462.2637,594.4531 462.2637,594.4531 447.2637,594.4531 L437.2637,594.4531" fill="none" style="stroke:#666666;stroke-width:2;"/><path d="M613.2634,493.7109 L603.2634,493.7109 C588.2634,493.7109 588.2634,594.4531 573.2634,594.4531 L563.2634,594.4531" fill="none" style="stroke:#666666;stroke-width:2;"/><path d="M787.4968,602.6016 L777.4968,602.6016 C762.4968,602.6016 762.4968,493.7109 747.4968,493.7109 L737.4968,493.7109" fill="none" style="stroke:#666666;stroke-width:2;"/><rect fill="#DC2626" height="36.2969" rx="12.5" ry="12.5" style="stroke:#181818;stroke-width:1.5;" width="110.2334" x="627.2634" y="749.6406"/><path d="M642.93,763.1042 C641.6467,763.1042 640.5967,764.1542 640.5967,765.4375 L640.5967,766.6042 L639.43,766.6042 L639.43,771.2708 L646.43,771.2708 L646.43,766.6042 L645.2634,766.6042 L645.2634,765.4375 C645.2634,764.1542 644.2134,763.1042 642.93,763.1042 M642.93,764.2708 C643.5834,764.2708 644.0967,764.7842 644.0967,765.4375 L644.0967,766.6042 L641.7634,766.6042 L641.7634,765.4375 C641.7634,764.7842 642.2767,764.2708 642.93,764.2708" fill="#FFFFFF"/><text fill="#FFFFFF" font-family="sans-serif" font-size="14" lengthAdjust="spacing" textLength="69.9997" x="653.0469" y="772.6357">&#23433;&#20840;&#19982;&#21512;&#35268;</text><rect fill="#FFFFFF" height="36.2969" rx="12.5" ry="12.5" style="stroke:#181818;stroke-width:1.5;" width="75.9998" x="501.2636" y="640.75"/><text fill="#000000" font-family="sans-serif" font-size="14" lengthAdjust="spacing" textLength="55.9998" x="511.2636" y="663.7451">&#36523;&#20221;&#35748;&#35777;</text><rect fill="#FFFFFF" height="36.2969" rx="12.5" ry="12.5" style="stroke:#181818;stroke-width:1.5;" width="378.018" x="73.2456" y="640.75"/><text fill="#000000" font-family="sans-serif" font-size="14" lengthAdjust="spacing" textLength="358.018" x="83.2456" y="663.7451">mTLS &#21452;&#21521;&#35777;&#20070;&#12289;SPIFFE ID&#12289;&#30701;&#21608;&#26399; JWT (&lt;= 15 min)</text><path d="M501.2636,658.8984 L491.2636,658.8984 C476.2636,658.8984 476.2636,658.8984 461.2636,658.8984 L451.2636,658.8984" fill="none" style="stroke:#666666;stroke-width:2;"/><path d="M627.2634,767.7891 L617.2634,767.7891 C602.2634,767.7891 602.2634,658.8984 587.2634,658.8984 L577.2634,658.8984" fill="none" style="stroke:#666666;stroke-width:2;"/><rect fill="#FFFFFF" height="36.2969" rx="12.5" ry="12.5" style="stroke:#181818;stroke-width:1.5;" width="75.9998" x="501.2636" y="705.1953"/><text fill="#000000" font-family="sans-serif" font-size="14" lengthAdjust="spacing" textLength="55.9998" x="511.2636" y="728.1904">&#32593;&#32476;&#38548;&#31163;</text><rect fill="#FFFFFF" height="52.5938" rx="12.5" ry="12.5" style="stroke:#181818;stroke-width:1.5;" width="387.1989" x="64.0647" y="697.0469"/><text fill="#000000" font-family="sans-serif" font-size="14" lengthAdjust="spacing" textLength="367.1989" x="74.0647" y="720.042">Namespace &#32423; NetworkPolicy&#12289;Ingress/Egress &#30333;&#21517;&#21333;</text><text fill="#000000" font-family="sans-serif" font-size="14" lengthAdjust="spacing" textLength="190.0046" x="74.0647" y="736.3389">DDoS &#38450;&#25252;&#36895;&#29575; &lt;= 10 Gbps</text><path d="M501.2636,723.3438 L491.2636,723.3438 C476.2636,723.3438 476.2636,723.3438 461.2636,723.3438 L451.2636,723.3438" fill="none" style="stroke:#666666;stroke-width:2;"/><path d="M627.2634,767.7891 L617.2634,767.7891 C602.2634,767.7891 602.2634,723.3438 587.2634,723.3438 L577.2634,723.3438" fill="none" style="stroke:#666666;stroke-width:2;"/><rect fill="#FFFFFF" height="36.2969" rx="12.5" ry="12.5" style="stroke:#181818;stroke-width:1.5;" width="75.9998" x="501.2636" y="777.7891"/><text fill="#000000" font-family="sans-serif" font-size="14" lengthAdjust="spacing" textLength="55.9998" x="511.2636" y="800.7842">&#25968;&#25454;&#33073;&#25935;</text><rect fill="#FFFFFF" height="52.5938" rx="12.5" ry="12.5" style="stroke:#181818;stroke-width:1.5;" width="286.9291" x="164.3345" y="769.6406"/><text fill="#000000" font-family="sans-serif" font-size="14" lengthAdjust="spacing" textLength="208.4136" x="174.3345" y="792.6357">PII &#23383;&#27573;&#33258;&#21160;&#35782;&#21035;+AES-256 &#21152;&#23494;</text><text fill="#000000" font-family="sans-serif" font-size="14" lengthAdjust="spacing" textLength="266.9291" x="174.3345" y="808.9326">&#23494;&#38053;&#25176;&#31649;&#20110; HSM&#65292;&#28385;&#36275; GDPR/CCPA &#35201;&#27714;</text><path d="M501.2636,795.9375 L491.2636,795.9375 C476.2636,795.9375 476.2636,795.9375 461.2636,795.9375 L451.2636,795.9375" fill="none" style="stroke:#666666;stroke-width:2;"/><path d="M627.2634,767.7891 L617.2634,767.7891 C602.2634,767.7891 602.2634,795.9375 587.2634,795.9375 L577.2634,795.9375" fill="none" style="stroke:#666666;stroke-width:2;"/><rect fill="#FFFFFF" height="36.2969" rx="12.5" ry="12.5" style="stroke:#181818;stroke-width:1.5;" width="75.9998" x="501.2636" y="850.3828"/><text fill="#000000" font-family="sans-serif" font-size="14" lengthAdjust="spacing" textLength="55.9998" x="511.2636" y="873.3779">&#21512;&#35268;&#23457;&#35745;</text><rect fill="#FFFFFF" height="52.5938" rx="12.5" ry="12.5" style="stroke:#181818;stroke-width:1.5;" width="355.5549" x="95.7087" y="842.2344"/><text fill="#000000" font-family="sans-serif" font-size="14" lengthAdjust="spacing" textLength="335.5549" x="105.7087" y="865.2295">&#23395;&#24230;&#28183;&#36879;&#27979;&#35797;&#12289;ISO27001 &#35748;&#35777;&#12289;SOC2 Type II &#25253;&#21578;</text><text fill="#000000" font-family="sans-serif" font-size="14" lengthAdjust="spacing" textLength="154.6628" x="105.7087" y="881.5264">&#28431;&#27934; SLA &lt;= 24 h &#20462;&#22797;</text><path d="M501.2636,868.5313 L491.2636,868.5313 C476.2636,868.5313 476.2636,868.5313 461.2636,868.5313 L451.2636,868.5313" fill="none" style="stroke:#666666;stroke-width:2;"/><path d="M627.2634,767.7891 L617.2634,767.7891 C602.2634,767.7891 602.2634,868.5313 587.2634,868.5313 L577.2634,868.5313" fill="none" style="stroke:#666666;stroke-width:2;"/><path d="M787.4968,602.6016 L777.4968,602.6016 C762.4968,602.6016 762.4968,767.7891 747.4968,767.7891 L737.4968,767.7891" fill="none" style="stroke:#666666;stroke-width:2;"/><rect fill="#4F46E5" height="36.2969" rx="12.5" ry="12.5" style="stroke:#181818;stroke-width:1.5;" width="98.9001" x="638.5967" y="1031.8672"/><text fill="#FFFFFF" font-family="sans-serif" font-size="14" lengthAdjust="spacing" textLength="69.9997" x="653.0469" y="1054.8623">&#37096;&#32626;&#19982;&#36816;&#32500;</text><rect fill="#FFFFFF" height="36.2969" rx="12.5" ry="12.5" style="stroke:#181818;stroke-width:1.5;" width="59.1768" x="529.4199" y="922.9766"/><text fill="#000000" font-family="sans-serif" font-size="14" lengthAdjust="spacing" textLength="39.1768" x="539.4199" y="945.9717">CI/CD</text><rect fill="#FFFFFF" height="52.5938" rx="12.5" ry="12.5" style="stroke:#181818;stroke-width:1.5;" width="294.5921" x="184.8278" y="914.8281"/><text fill="#000000" font-family="sans-serif" font-size="14" lengthAdjust="spacing" textLength="274.5921" x="194.8278" y="937.8232">GitOps &#27969;&#27700;&#32447; (ArgoCD)&#12289;&#20027;&#24178;&#20998;&#25903;&#21363;&#21457;&#24067;</text><text fill="#000000" font-family="sans-serif" font-size="14" lengthAdjust="spacing" textLength="260.0385" x="194.8278" y="954.1201">&#34013;&#32511;&#21457;&#24067;&#31383;&#21475; &lt;= 5 min&#12289;&#22238;&#28378; &lt;= 30 s</text><path d="M529.4199,941.125 L519.4199,941.125 C504.4199,941.125 504.4199,941.125 489.4199,941.125 L479.4199,941.125" fill="none" style="stroke:#666666;stroke-width:2;"/><path d="M638.5967,1050.0156 L628.5967,1050.0156 C613.5967,1050.0156 613.5967,941.125 598.5967,941.125 L588.5967,941.125" fill="none" style="stroke:#666666;stroke-width:2;"/><rect fill="#FFFFFF" height="36.2969" rx="12.5" ry="12.5" style="stroke:#181818;stroke-width:1.5;" width="75.9998" x="512.5969" y="995.5703"/><text fill="#000000" font-family="sans-serif" font-size="14" lengthAdjust="spacing" textLength="55.9998" x="522.5969" y="1018.5654">&#30417;&#25511;&#21578;&#35686;</text><rect fill="#FFFFFF" height="52.5938" rx="12.5" ry="12.5" style="stroke:#181818;stroke-width:1.5;" width="266.6055" x="195.9914" y="987.4219"/><text fill="#000000" font-family="sans-serif" font-size="14" lengthAdjust="spacing" textLength="246.6055" x="205.9914" y="1010.417">&#22522;&#20110; SLO &#30340;&#38169;&#35823;&#39044;&#31639;&#12289;&#22810;&#32500;&#24230;&#21578;&#35686;&#25910;&#25947;</text><text fill="#000000" font-family="sans-serif" font-size="14" lengthAdjust="spacing" textLength="239.2438" x="205.9914" y="1026.7139">PageRank &#25233;&#21046;&#12289;On-Call &#36718;&#20540; 24x7</text><path d="M512.5969,1013.7188 L502.5969,1013.7188 C487.5969,1013.7188 487.5969,1013.7188 472.5969,1013.7188 L462.5969,1013.7188" fill="none" style="stroke:#666666;stroke-width:2;"/><path d="M638.5967,1050.0156 L628.5967,1050.0156 C613.5967,1050.0156 613.5967,1013.7188 598.5967,1013.7188 L588.5967,1013.7188" fill="none" style="stroke:#666666;stroke-width:2;"/><rect fill="#FFFFFF" height="36.2969" rx="12.5" ry="12.5" style="stroke:#181818;stroke-width:1.5;" width="75.9998" x="512.5969" y="1068.1641"/><text fill="#000000" font-family="sans-serif" font-size="14" lengthAdjust="spacing" textLength="55.9998" x="522.5969" y="1091.1592">&#24377;&#24615;&#20280;&#32553;</text><rect fill="#FFFFFF" height="52.5938" rx="12.5" ry="12.5" style="stroke:#181818;stroke-width:1.5;" width="293.1428" x="169.4541" y="1060.0156"/><text fill="#000000" font-family="sans-serif" font-size="14" lengthAdjust="spacing" textLength="243.6937" x="179.4541" y="1083.0107">HPA &#26681;&#25454; CPU/QPS/&#38431;&#21015;&#28145;&#24230;&#32508;&#21512;&#25351;&#26631;</text><text fill="#000000" font-family="sans-serif" font-size="14" lengthAdjust="spacing" textLength="273.1428" x="179.4541" y="1099.3076">&#25193;&#23481;&#38408;&#20540; 70%&#12289;&#32553;&#23481;&#38408;&#20540; 30%&#12289;&#20919;&#21364; 60 s</text><path d="M512.5969,1086.3125 L502.5969,1086.3125 C487.5969,1086.3125 487.5969,1086.3125 472.5969,1086.3125 L462.5969,1086.3125" fill="none" style="stroke:#666666;stroke-width:2;"/><path d="M638.5967,1050.0156 L628.5967,1050.0156 C613.5967,1050.0156 613.5967,1086.3125 598.5967,1086.3125 L588.5967,1086.3125" fill="none" style="stroke:#666666;stroke-width:2;"/><rect fill="#FFFFFF" height="36.2969" rx="12.5" ry="12.5" style="stroke:#181818;stroke-width:1.5;" width="75.9998" x="512.5969" y="1140.7578"/><text fill="#000000" font-family="sans-serif" font-size="14" lengthAdjust="spacing" textLength="55.9998" x="522.5969" y="1163.7529">&#23481;&#28798;&#31574;&#30053;</text><rect fill="#FFFFFF" height="52.5938" rx="12.5" ry="12.5" style="stroke:#181818;stroke-width:1.5;" width="343.6333" x="118.9636" y="1132.6094"/><text fill="#000000" font-family="sans-serif" font-size="14" lengthAdjust="spacing" textLength="323.6333" x="128.9636" y="1155.6045">&#19977;&#21487;&#29992;&#21306;&#37096;&#32626;&#12289;RPO &lt;= 5 min&#12289;RTO &lt;= 15 min</text><text fill="#000000" font-family="sans-serif" font-size="14" lengthAdjust="spacing" textLength="153.9993" x="128.9636" y="1171.9014">&#36328;&#21306;&#22495;&#28798;&#22791;&#28436;&#32451;&#27599;&#26376;&#19968;&#27425;</text><path d="M512.5969,1158.9063 L502.5969,1158.9063 C487.5969,1158.9063 487.5969,1158.9063 472.5969,1158.9063 L462.5969,1158.9063" fill="none" style="stroke:#666666;stroke-width:2;"/><path d="M638.5967,1050.0156 L628.5967,1050.0156 C613.5967,1050.0156 613.5967,1158.9063 598.5967,1158.9063 L588.5967,1158.9063" fill="none" style="stroke:#666666;stroke-width:2;"/><path d="M787.4968,602.6016 L777.4968,602.6016 C762.4968,602.6016 762.4968,1050.0156 747.4968,1050.0156 L737.4968,1050.0156" fill="none" style="stroke:#666666;stroke-width:2;"/><?plantuml-src VLTjKnfP5lxEhxXLMzaofeo8nfWjnne3cZXZ8YEavWjVY7IG4Xkh6oUJtPegV4Cq8AWeAaObKI5nWFY6lCgFcRwtRt_Qlx3dzcsJREsQL2Mck-zvkUTvpdEEFyf1jnISz8cUIVUKgLSEll4BVIRZsUPpUoNt9FgN2I4nu17q_o3qs3qsuPK2qwB76l079FHwt1SK-9U0v14a_lQb7uxfRmS3Ol2vUr90ibkKssH1yhtwyjxX-wU0EhhqPxlRu_69NjHXrX-VkIMlJ-HFVy3V-_Bqb23zvfF1-VzFv6yT0vtzFVrVdFztUhgFrm5fGf3asnoORO-wUdg-v-2LF_3wDkl11uy6p8-_P-rn1zstMNS_VcZfCN_FMXR6fYLVyCrj7cnMIxUb-tiU0bEtNhrhiAjxuC5tZDsIzENgmpvHk4bR__FbhNFSDpOX2hACBBhT7wRUTeDLfbRKAmFU_-ZewMjjTNn5ynxwbSFIsWg7uKIVIpHETlNXmnsoNQLp3QMnZcDnfR5BSXbSZnidKM-l50W4-_fChU3-x-1J3eXzw1llBVIgg2PFwUSvN3s-2-U_yaYtQaKqkqQNpd1XHsd4s8jMX1To-3G4uS2AXXR-2iqejHfUpd1NU3i7RzJaFbvjuDKSsTrN2nar4OQJkZzoKCRDEJeJfHSV37_BENBZ0qV2EBuA3kZ5FcqqyBj5cid08zbOq7PsQUDFDLjpYUfo2Inm8ahoH-pivJof9hI5cFR-7Ld9uaZ9nFCyrv85jP0Yvniyab8EqSKB4ihYzGWkHtd2BF_w5bw8gDMijhMF8ocNo3AyEYSVGkJoBRjDE4asyqfvHLkCqUA6cjzKDuxq64hrKAckiLeK2Zo6TzHkRN_gTDej2CUZEB5ABcV0XLqA10ClfryXKegGcI8vg0DCBj4vx40TzpkX1WUu68Pp8_tJmN4BejKJfTRGFaLfSOPV9bwasLb81xBdWS3Zf10S5wPbHAABv62HMKy9ebFm2_11UeEqzMku8cqsQFaJ5AssJlRcSNIJf8vmCmMdSM6Ff4fAxHFDvDJqbecpP2pWxRlX76hHteVn_hvINiU54kE7eH6takFRymotr047YyDBbh8q4yMn3Rmm1rME5ydd2rmv9qiVyUc6kZEFx04F0XpmTO7ini205xcyhfHtk6SUXIv-KkTBj9YdkH0-d0TwCHe0pm3itIhDXcbsYKLVoT5OWZC02h1_H8jXdBwcdndek5w5Ok3yiL8vu9Tf9Y0vg8X1oq85k0n7Mco1CRZplPzxvBjWzyJ-0k5w1N3WNUCI7T0nWkHdVGs90PsLUbcjVsGnmbSuKOGtgFS7r8batW5WETVWc1cXOXkyFiZ-w172jH9jxZCBYzcC9cNmOsKn8n_LP4vTMKHzFw1kynsNo38XMzSuluLZ1_2DcVIOxx2ubLarlmI1O4AOx_3RNUIqnRYMof5i-ajKW04e1PIcns4rlMauVwJxU3OTT0Tz0H7n4_Ww1St9FlUmsDgxRK2LB9sGU1oPaNO2EPoIUfnSxB72NrsHioWtr48xjBd8NEkvcFp2go2IVHx1u9ikdMsIppiUx4E6Y5tEgBctm3OsK0og6GIA9w3bRW1wJo9NwacHHq1F9FVK-2_3gDy-19HPLke7XgO0FIjBgEKdnyXpv1WR5oRTe48PQAwxl39SjyBdqDVSypS2YVUhIdM5Er9FQtYFwG7l3iJxXokLIrIgPtWj2ZK7MDNyDMsc6PkA9sfs3HZDkSBnrvi0r0J7OzfnX8UySQcpvIPlHa3KreV8soKStsJIllUsdMny9h62IuJtdB7wYKlWSvmsapYzfpVwBdiBLI3BHr-PXlWdEhE34v7_lMgnWlC9uwhy8B_3oXgknXchLceWWD18ZOBIpC1rw5uC7Fsx7YMx8RKM0T4daOHQW_OFuVKOhYQvTDLdSRdCszHetz825Av5gstHmY7gD2EPwHi8E7Y-IxF7C0AuvBf4tb1STv45aJypEB42Sm0l7E73Ktfnn2KRLqh00jRXJKZWmg3Mk5loj7aatsym2ddPe4wiyD0niz0klMpbCFZ5TPbxurd-x7uruKQTztz7Z7NNQSPzeF04-iNkW6fewHBtgPJVGofCWAvWt5L9f8aFOp24SFe0weawUH5Wi9Nd02ErlWxXUOHHmUEJaTK_BGS1-uSG2SYlbAlgN5wThN2y-NaGozM6KixVTEY3Er1rftCOyLb4aaKIdK73eo_k3G--09Zd3O0PgFGqmo_CWpxpYKCZo04pPw7EA7Owom3KOv7DHQLMKfSYPFTF43xWT3a6mE3u5kjf7iCk2MsopoiA7lHY5EBhxEPZcmSiP428-Omnq6uss7WBRmDcQDZnhCqf2G8oC6WP1N6LRO_lGh3cEtLZ6tNqc14-_CYICY8-raS2I6bZZMG-6DZwmQwD_IDuG3OAIx2LC6GJ4PgTPtkCiGxU32fzdWBRZ7dQYYRPwEKJ6jufbMEueiC-D3WuW8PiRERlv_dwWdxwrObQG5ex7Y3O_Rbcg8rLjRQhxIJLunhtnvPuUSez9h1aqNCXo2QbFU3tZRq1RqEYLuBvq3wW_q3gTWCdOY30Bj5c2pYGjdL6bW-rq3x3buKoeoSlfunnePECpf-IZRWn-OU6e7mfKhZatS6cMkJaNl-0eytoeDlO9O0nnR2sTaIMjc010mr3JntFM55h6LewHqzizj5sgzNUZ-Zn33cTvTZfrUC86XgR_m1zJiefBHJdSiukunYnF3IREn2l9olSYDM2d6-c10IfWUJWrMMNoAS1SWptwxEi2uqZfLc0tZ0Gb1XueFdQN4vjd05ul7S1FDZ43ToiG-rM6q_bYIyu0XiwT30i3MgrYLhw9M_0QcCpMIdNSEKCM0YKmR5pu28q6uZ7-ZkrrkHFwgSKZdzWcUWmCZbBxv7QZZwPpSPeLjEhR85SNQRvOwC0klx39KOGx2TQSfiMYzhxUTWfc8V37KWO2iGjI18K8UqIxMwlCEeM9w0Igw03R2yJswnkln_HHW67wb2BtnyQqiZs2Buky7XF0H5oK0744GpzTf2QTgv9vEeK0gcrEe345Hqg37jJeQ9jHPZJX_hK1aTVNtNoPG0w9tO1AuDnIVYkpbn_NMBPWWNp1OOWR3jLZWQOZTf7lgtMg5D_v4q0fRrYXs4X0rVuS97KasfjZXJZP3S2wWyoRJBzAC0loiOlpwQE-nQpfVj-nty0?></g></svg>